<svg width="110" height="46" viewBox="0 0 110 46" fill="none" xmlns="http://www.w3.org/2000/svg">
<path d="M3.59235 14.8565C2.51465 14.8565 1.64317 14.5305 0.977918 13.8786C0.325973 13.2133 0 12.3352 0 11.2442V4.15925C0 3.06824 0.325973 2.19676 0.977918 1.54481C1.64317 0.892867 2.51465 0.566895 3.59235 0.566895C4.68336 0.566895 5.55484 0.892867 6.20679 1.54481C6.87204 2.19676 7.20466 3.06824 7.20466 4.15925V4.47857C7.20466 4.61162 7.13814 4.67814 7.00509 4.67814L5.48832 4.75797C5.35527 4.75797 5.28874 4.69145 5.28874 4.5584V4.0395C5.28874 3.494 5.12908 3.05493 4.80976 2.72231C4.50375 2.38968 4.09794 2.22337 3.59235 2.22337C3.08676 2.22337 2.68096 2.38968 2.37494 2.72231C2.06893 3.05493 1.91593 3.494 1.91593 4.0395V11.3839C1.91593 11.9294 2.06893 12.3684 2.37494 12.7011C2.68096 13.0337 3.08676 13.2 3.59235 13.2C4.09794 13.2 4.50375 13.0337 4.80976 12.7011C5.12908 12.3684 5.28874 11.9294 5.28874 11.3839V10.865C5.28874 10.7319 5.35527 10.6654 5.48832 10.6654L7.00509 10.7452C7.13814 10.7452 7.20466 10.8117 7.20466 10.9448V11.2442C7.20466 12.3352 6.87204 13.2133 6.20679 13.8786C5.55484 14.5305 4.68336 14.8565 3.59235 14.8565Z" fill="#333333"/>
<path d="M13.8535 14.8565C12.7625 14.8565 11.8843 14.5238 11.2191 13.8586C10.5538 13.1933 10.2212 12.3086 10.2212 11.2042V4.23908C10.2212 3.13476 10.5538 2.24998 11.2191 1.58473C11.8843 0.906172 12.7625 0.566895 13.8535 0.566895C14.9578 0.566895 15.8426 0.906172 16.5078 1.58473C17.1864 2.24998 17.5257 3.13476 17.5257 4.23908V11.2042C17.5257 12.3086 17.1864 13.1933 16.5078 13.8586C15.8426 14.5238 14.9578 14.8565 13.8535 14.8565ZM13.8535 13.2C14.3857 13.2 14.8114 13.027 15.1308 12.6811C15.4501 12.3219 15.6097 11.8562 15.6097 11.2841V4.13929C15.6097 3.56717 15.4501 3.10815 15.1308 2.76222C14.8114 2.40299 14.3857 2.22337 13.8535 2.22337C13.3346 2.22337 12.9155 2.40299 12.5962 2.76222C12.2901 3.10815 12.1371 3.56717 12.1371 4.13929V11.2841C12.1371 11.8562 12.2901 12.3219 12.5962 12.6811C12.9155 13.027 13.3346 13.2 13.8535 13.2Z" fill="#333333"/>
<path d="M21.1163 14.6968C20.9832 14.6968 20.9167 14.6303 20.9167 14.4972V0.926129C20.9167 0.793079 20.9832 0.726554 21.1163 0.726554H22.6331C22.7661 0.726554 22.8326 0.793079 22.8326 0.926129V12.9605C22.8326 13.0137 22.8592 13.0403 22.9125 13.0403H27.383C27.516 13.0403 27.5825 13.1069 27.5825 13.2399V14.4972C27.5825 14.6303 27.516 14.6968 27.383 14.6968H21.1163Z" fill="#333333"/>
<path d="M30.441 14.6968C30.3079 14.6968 30.2414 14.6303 30.2414 14.4972V0.926129C30.2414 0.793079 30.3079 0.726554 30.441 0.726554H31.9577C32.0908 0.726554 32.1573 0.793079 32.1573 0.926129V14.4972C32.1573 14.6303 32.0908 14.6968 31.9577 14.6968H30.441Z" fill="#333333"/>
<path d="M41.4521 0.926129C41.4521 0.793079 41.5186 0.726554 41.6516 0.726554H43.1484C43.2815 0.726554 43.348 0.793079 43.348 0.926129V14.4972C43.348 14.6303 43.2815 14.6968 43.1484 14.6968H41.4321C41.3257 14.6968 41.2525 14.6436 41.2126 14.5372L37.8198 5.41657C37.8065 5.38996 37.7865 5.38331 37.7599 5.39661C37.7333 5.39661 37.72 5.40992 37.72 5.43653L37.74 14.4972C37.74 14.6303 37.6734 14.6968 37.5404 14.6968H36.0236C35.8906 14.6968 35.824 14.6303 35.824 14.4972V0.926129C35.824 0.793079 35.8906 0.726554 36.0236 0.726554H37.72C37.8264 0.726554 37.8996 0.779774 37.9395 0.886214L41.3523 10.0068C41.3656 10.0467 41.3855 10.0667 41.4122 10.0667C41.4388 10.0534 41.4521 10.0268 41.4521 9.98684V0.926129Z" fill="#333333"/>
<path d="M55.2461 14.8565C54.195 14.8565 53.3435 14.5305 52.6916 13.8786C52.0529 13.2133 51.7336 12.3485 51.7336 11.2841V10.7652C51.7336 10.6321 51.8001 10.5656 51.9332 10.5656H53.41C53.5431 10.5656 53.6096 10.6321 53.6096 10.7652V11.1843C53.6096 11.7963 53.7626 12.2886 54.0686 12.6611C54.3746 13.0204 54.7671 13.2 55.2461 13.2C55.7251 13.2 56.1176 13.027 56.4236 12.6811C56.7429 12.3219 56.9026 11.8562 56.9026 11.2841C56.9026 10.8982 56.8161 10.559 56.6432 10.2662C56.4835 9.97353 56.264 9.71409 55.9846 9.4879C55.7185 9.24841 55.2794 8.90248 54.6674 8.45011C53.9888 7.94452 53.4566 7.51211 53.0708 7.15287C52.6849 6.79364 52.3589 6.36122 52.0928 5.85563C51.8267 5.35004 51.6937 4.75797 51.6937 4.07942C51.6937 3.00171 52.013 2.15019 52.6517 1.52485C53.2903 0.886215 54.1219 0.566895 55.1463 0.566895C56.2107 0.566895 57.0623 0.906172 57.7009 1.58473C58.3529 2.26328 58.6788 3.15472 58.6788 4.25903V4.75797C58.6788 4.89102 58.6123 4.95755 58.4792 4.95755H57.0024C56.8693 4.95755 56.8028 4.89102 56.8028 4.75797V4.21912C56.8028 3.62039 56.6498 3.14141 56.3438 2.78218C56.0378 2.40964 55.6386 2.22337 55.1463 2.22337C54.6807 2.22337 54.3015 2.38968 54.0088 2.72231C53.7161 3.04163 53.5697 3.494 53.5697 4.07942C53.5697 4.61162 53.7161 5.06399 54.0088 5.43653C54.3015 5.79576 54.8669 6.28139 55.7052 6.89342C56.5035 7.49215 57.1022 7.97778 57.5013 8.35032C57.9138 8.72286 58.2265 9.13532 58.4393 9.58769C58.6655 10.0268 58.7786 10.5523 58.7786 11.1643C58.7786 12.282 58.4526 13.18 57.8007 13.8586C57.1488 14.5238 56.2972 14.8565 55.2461 14.8565Z" fill="#333333"/>
<path d="M65.5426 0.706596C66.5671 0.706596 67.392 1.07914 68.0174 1.82422C68.656 2.55599 68.9753 3.52061 68.9753 4.71806C68.9753 5.8889 68.6693 6.83355 68.0573 7.55202C67.4452 8.27049 66.6403 8.62973 65.6424 8.62973H63.7664C63.7132 8.62973 63.6866 8.65634 63.6866 8.70956V14.4972C63.6866 14.6303 63.6201 14.6968 63.487 14.6968H61.9702C61.8372 14.6968 61.7707 14.6303 61.7707 14.4972V0.906171C61.7707 0.773121 61.8372 0.706596 61.9702 0.706596H65.5426ZM65.2433 7.093C65.7888 7.093 66.2278 6.88677 66.5605 6.47432C66.8931 6.04856 67.0594 5.47644 67.0594 4.75797C67.0594 4.0262 66.8931 3.44743 66.5605 3.02167C66.2278 2.5826 65.7888 2.36307 65.2433 2.36307H63.7664C63.7132 2.36307 63.6866 2.38968 63.6866 2.4429V7.01317C63.6866 7.06639 63.7132 7.093 63.7664 7.093H65.2433Z" fill="#333333"/>
<path d="M78.6781 2.18345C78.6781 2.3165 78.6116 2.38303 78.4785 2.38303H73.9881C73.9349 2.38303 73.9083 2.40964 73.9083 2.46286V6.79364C73.9083 6.84686 73.9349 6.87347 73.9881 6.87347H76.7422C76.8753 6.87347 76.9418 6.93999 76.9418 7.07304V8.33037C76.9418 8.46342 76.8753 8.52994 76.7422 8.52994H73.9881C73.9349 8.52994 73.9083 8.55655 73.9083 8.60977V12.9605C73.9083 13.0137 73.9349 13.0403 73.9881 13.0403H78.4785C78.6116 13.0403 78.6781 13.1069 78.6781 13.2399V14.4972C78.6781 14.6303 78.6116 14.6968 78.4785 14.6968H72.1919C72.0589 14.6968 71.9923 14.6303 71.9923 14.4972V0.926129C71.9923 0.793079 72.0589 0.726554 72.1919 0.726554H78.4785C78.6116 0.726554 78.6781 0.793079 78.6781 0.926129V2.18345Z" fill="#333333"/>
<path d="M87.4323 0.926129C87.4323 0.793079 87.4988 0.726554 87.6319 0.726554H89.1287C89.2617 0.726554 89.3283 0.793079 89.3283 0.926129V14.4972C89.3283 14.6303 89.2617 14.6968 89.1287 14.6968H87.4123C87.3059 14.6968 87.2327 14.6436 87.1928 14.5372L83.8 5.41657C83.7867 5.38996 83.7668 5.38331 83.7402 5.39661C83.7136 5.39661 83.7002 5.40992 83.7002 5.43653L83.7202 14.4972C83.7202 14.6303 83.6537 14.6968 83.5206 14.6968H82.0039C81.8708 14.6968 81.8043 14.6303 81.8043 14.4972V0.926129C81.8043 0.793079 81.8708 0.726554 82.0039 0.726554H83.7002C83.8067 0.726554 83.8799 0.779774 83.9198 0.886214L87.3325 10.0068C87.3458 10.0467 87.3658 10.0667 87.3924 10.0667C87.419 10.0534 87.4323 10.0268 87.4323 9.98684V0.926129Z" fill="#333333"/>
<path d="M96.3129 14.8565C95.2352 14.8565 94.3637 14.5305 93.6985 13.8786C93.0465 13.2133 92.7206 12.3352 92.7206 11.2442V4.15925C92.7206 3.06824 93.0465 2.19676 93.6985 1.54481C94.3637 0.892867 95.2352 0.566895 96.3129 0.566895C97.4039 0.566895 98.2754 0.892867 98.9274 1.54481C99.5926 2.19676 99.9252 3.06824 99.9252 4.15925V4.47857C99.9252 4.61162 99.8587 4.67814 99.7257 4.67814L98.2089 4.75797C98.0758 4.75797 98.0093 4.69145 98.0093 4.5584V4.0395C98.0093 3.494 97.8496 3.05493 97.5303 2.72231C97.2243 2.38968 96.8185 2.22337 96.3129 2.22337C95.8073 2.22337 95.4015 2.38968 95.0955 2.72231C94.7895 3.05493 94.6365 3.494 94.6365 4.0395V11.3839C94.6365 11.9294 94.7895 12.3684 95.0955 12.7011C95.4015 13.0337 95.8073 13.2 96.3129 13.2C96.8185 13.2 97.2243 13.0337 97.5303 12.7011C97.8496 12.3684 98.0093 11.9294 98.0093 11.3839V10.865C98.0093 10.7319 98.0758 10.6654 98.2089 10.6654L99.7257 10.7452C99.8587 10.7452 99.9252 10.8117 99.9252 10.9448V11.2442C99.9252 12.3352 99.5926 13.2133 98.9274 13.8786C98.2754 14.5305 97.4039 14.8565 96.3129 14.8565Z" fill="#333333"/>
<path d="M109.907 2.18345C109.907 2.3165 109.84 2.38303 109.707 2.38303H105.217C105.164 2.38303 105.137 2.40964 105.137 2.46286V6.79364C105.137 6.84686 105.164 6.87347 105.217 6.87347H107.971C108.104 6.87347 108.171 6.93999 108.171 7.07304V8.33037C108.171 8.46342 108.104 8.52994 107.971 8.52994H105.217C105.164 8.52994 105.137 8.55655 105.137 8.60977V12.9605C105.137 13.0137 105.164 13.0403 105.217 13.0403H109.707C109.84 13.0403 109.907 13.1069 109.907 13.2399V14.4972C109.907 14.6303 109.84 14.6968 109.707 14.6968H103.421C103.288 14.6968 103.221 14.6303 103.221 14.4972V0.926129C103.221 0.793079 103.288 0.726554 103.421 0.726554H109.707C109.84 0.726554 109.907 0.793079 109.907 0.926129V2.18345Z" fill="#333333"/>
<path d="M1.20835 45.2066C0.963661 45.2066 0.841322 45.0842 0.841322 44.8395V19.8812C0.841322 19.6365 0.963661 19.5141 1.20835 19.5141H7.22772C9.25865 19.5141 10.8736 20.1381 12.0726 21.386C13.2716 22.6339 13.871 24.3223 13.871 26.4511V38.2696C13.871 40.3984 13.2716 42.0868 12.0726 43.3347C10.8736 44.5826 9.25865 45.2066 7.22772 45.2066H1.20835ZM4.36485 42.0134C4.36485 42.1112 4.41379 42.1602 4.51167 42.1602L7.19102 42.1235C8.12084 42.1235 8.86714 41.7687 9.42993 41.0591C9.99271 40.325 10.2863 39.334 10.3108 38.0861V26.6346C10.3108 25.3867 10.0294 24.3957 9.46663 23.6616C8.90384 22.9276 8.14531 22.5605 7.19102 22.5605H4.51167C4.41379 22.5605 4.36485 22.6095 4.36485 22.7073V42.0134Z" fill="#333333"/>
<path d="M34.5311 22.1935C34.5311 22.4382 34.4087 22.5605 34.164 22.5605H25.9058C25.8079 22.5605 25.759 22.6095 25.759 22.7073V30.672C25.759 30.7699 25.8079 30.8188 25.9058 30.8188H30.9708C31.2155 30.8188 31.3379 30.9412 31.3379 31.1858V33.4982C31.3379 33.7429 31.2155 33.8652 30.9708 33.8652H25.9058C25.8079 33.8652 25.759 33.9141 25.759 34.012V42.0134C25.759 42.1112 25.8079 42.1602 25.9058 42.1602H34.164C34.4087 42.1602 34.5311 42.2825 34.5311 42.5272V44.8395C34.5311 45.0842 34.4087 45.2066 34.164 45.2066H22.6025C22.3578 45.2066 22.2354 45.0842 22.2354 44.8395V19.8812C22.2354 19.6365 22.3578 19.5141 22.6025 19.5141H34.164C34.4087 19.5141 34.5311 19.6365 34.5311 19.8812V22.1935Z" fill="#333333"/>
<path d="M48.0615 45.5002C46.1284 45.5002 44.5624 44.9007 43.3634 43.7017C42.1889 42.4783 41.6017 40.8878 41.6017 38.9303V37.976C41.6017 37.7313 41.724 37.609 41.9687 37.609H44.6848C44.9295 37.609 45.0518 37.7313 45.0518 37.976V38.7468C45.0518 39.8723 45.3332 40.7777 45.896 41.4628C46.4588 42.1235 47.1806 42.4538 48.0615 42.4538C48.9424 42.4538 49.6642 42.1357 50.227 41.4995C50.8142 40.8389 51.1079 39.9824 51.1079 38.9303C51.1079 38.2207 50.9488 37.5967 50.6307 37.0584C50.3371 36.5201 49.9333 36.0429 49.4195 35.627C48.9301 35.1865 48.1226 34.5503 46.9971 33.7184C45.7492 32.7886 44.7704 31.9933 44.0608 31.3327C43.3512 30.672 42.7517 29.8768 42.2623 28.9469C41.773 28.0171 41.5283 26.9282 41.5283 25.6803C41.5283 23.6983 42.1155 22.1323 43.29 20.9823C44.4645 19.8078 45.9939 19.2205 47.878 19.2205C49.8355 19.2205 51.4015 19.8445 52.576 21.0924C53.775 22.3403 54.3745 23.9797 54.3745 26.0107V26.9282C54.3745 27.1729 54.2521 27.2953 54.0074 27.2953H51.2914C51.0467 27.2953 50.9244 27.1729 50.9244 26.9282V25.9372C50.9244 24.8361 50.643 23.9553 50.0802 23.2946C49.5174 22.6095 48.7833 22.2669 47.878 22.2669C47.0215 22.2669 46.3242 22.5728 45.7859 23.1845C45.2475 23.7717 44.9784 24.6037 44.9784 25.6803C44.9784 26.6591 45.2475 27.491 45.7859 28.1762C46.3242 28.8368 47.3641 29.7299 48.9057 30.8555C50.3738 31.9566 51.4749 32.8497 52.209 33.5349C52.9675 34.22 53.5425 34.9785 53.934 35.8105C54.35 36.618 54.558 37.5845 54.558 38.7101C54.558 40.7654 53.9585 42.4171 52.7595 43.665C51.5605 44.8885 49.9945 45.5002 48.0615 45.5002Z" fill="#333333"/>
<path d="M62.8816 45.2066C62.637 45.2066 62.5146 45.0842 62.5146 44.8395V19.8812C62.5146 19.6365 62.637 19.5141 62.8816 19.5141H65.6711C65.9158 19.5141 66.0381 19.6365 66.0381 19.8812V44.8395C66.0381 45.0842 65.9158 45.2066 65.6711 45.2066H62.8816Z" fill="#333333"/>
<path d="M81.0765 45.5002C79.0945 45.5002 77.4918 44.9129 76.2684 43.7384C75.0694 42.5639 74.4699 41.0101 74.4699 39.0771V25.6436C74.4699 23.7106 75.0694 22.1568 76.2684 20.9823C77.4918 19.8078 79.0945 19.2205 81.0765 19.2205C83.0585 19.2205 84.6612 19.8078 85.8847 20.9823C87.1081 22.1568 87.7199 23.7228 87.7199 25.6803V27.2219C87.7199 27.4666 87.5975 27.5889 87.3528 27.5889H84.5634C84.3187 27.5889 84.1963 27.4666 84.1963 27.2219V25.6069C84.1963 24.6037 83.9027 23.7962 83.3154 23.1845C82.7526 22.5728 82.0063 22.2669 81.0765 22.2669C80.1467 22.2669 79.3882 22.5728 78.8009 23.1845C78.2381 23.7962 77.9567 24.6037 77.9567 25.6069V39.1138C77.9567 40.117 78.2381 40.9245 78.8009 41.5362C79.3882 42.1479 80.1467 42.4538 81.0765 42.4538C82.0063 42.4538 82.7526 42.1479 83.3154 41.5362C83.9027 40.9245 84.1963 40.117 84.1963 39.1138V35.0764C84.1963 34.9785 84.1474 34.9296 84.0495 34.9296H81.26C81.0154 34.9296 80.893 34.8073 80.893 34.5626V32.2869C80.893 32.0423 81.0154 31.9199 81.26 31.9199H87.3528C87.5975 31.9199 87.7199 32.0423 87.7199 32.2869V39.0771C87.7199 41.0101 87.1081 42.5639 85.8847 43.7384C84.6612 44.9129 83.0585 45.5002 81.0765 45.5002Z" fill="#333333"/>
<path d="M106.513 19.8812C106.513 19.6365 106.636 19.5141 106.88 19.5141H109.633C109.878 19.5141 110 19.6365 110 19.8812V44.8395C110 45.0842 109.878 45.2066 109.633 45.2066H106.476C106.281 45.2066 106.146 45.1087 106.073 44.9129L99.8331 28.1395C99.8087 28.0905 99.772 28.0783 99.723 28.1028C99.6741 28.1028 99.6496 28.1272 99.6496 28.1762L99.6863 44.8395C99.6863 45.0842 99.564 45.2066 99.3193 45.2066H96.5298C96.2851 45.2066 96.1628 45.0842 96.1628 44.8395V19.8812C96.1628 19.6365 96.2851 19.5141 96.5298 19.5141H99.6496C99.8454 19.5141 99.98 19.612 100.053 19.8078L106.33 36.5813C106.354 36.6547 106.391 36.6914 106.44 36.6914C106.489 36.6669 106.513 36.618 106.513 36.5445V19.8812Z" fill="#333333"/>
</svg>
