<svg width="1193" height="389" viewBox="0 0 1193 389" fill="none" xmlns="http://www.w3.org/2000/svg">
<rect x="1183.5" y="269.062" width="5.61636" height="113.937" fill="#EAEAEA"/>
<path d="M182.5 383.099L449.3 382.999L417.5 331.399L409.1 324.399L408.1 323.599L407.5 322.399L347.4 198.299L341.3 195.599L339.5 194.699L338.6 192.999L320.1 158.199L259.2 255.899L258.6 256.899L257.7 257.599L251.1 262.399L182.5 383.099Z" fill="#7BCAAF"/>
<path d="M195.6 383.098L436.1 382.998L407.5 336.498L399.9 330.198L399 329.498L398.5 328.398L344.3 216.498L338.8 214.098L337.2 213.298L336.3 211.698L319.7 180.398L264.8 268.498L264.3 269.398L263.5 269.998L257.5 274.398L195.6 383.098Z" fill="#6FBA9D"/>
<path d="M422 327.498L412.8 319.898L351.8 193.798L343.8 190.198L320.5 146.398L254.3 252.798L246.7 258.398L172.3 388.998L459.7 388.898L422 327.498ZM258.6 256.898L259.2 255.898L320 158.198L338.5 192.998L339.4 194.798L341.2 195.598L347.3 198.298L407.4 322.398L408 323.598L409 324.398L417.5 331.398L449.2 382.998L182.4 383.098L251.1 262.398L257.7 257.498L258.6 256.898Z" fill="#29A881"/>
<path d="M873 382.698L1183.4 382.998L1144.2 302.398L1133.7 285.398L1133.4 284.798L1133.2 284.198L1092.5 163.098L1080.8 152.698L1079.6 151.698L1079.1 150.098L1037.1 16.8984L955.3 202.398L955.1 202.898L954.8 203.298L939 227.098L873 382.698Z" fill="#7BCAAF"/>
<path d="M883.2 383.401L1179.7 383.701L1142.2 312.501L1132.3 297.501L1131.9 297.001L1131.7 296.501L1092.9 189.501L1081.7 180.401L1080.5 179.401L1080.1 178.001L1040 60.3008L961.8 224.201L961.6 224.601L961.4 225.001L946.3 246.101L883.2 383.401Z" fill="#6FBA9D"/>
<path d="M1149.3 299.601L1138.7 282.401L1097.6 159.801L1084.7 148.401L1038.1 0.300781L949.9 200.001L933.8 224.301L864.1 388.501L1192.8 388.901L1149.3 299.601ZM955.1 202.901L955.3 202.401L1037.2 16.8008L1079.1 150.001L1079.6 151.601L1080.8 152.701L1092.5 163.001L1133.1 284.101L1133.3 284.701L1133.6 285.301L1144 302.301L1183.2 382.901L873 382.701L939 227.101L954.8 203.301L955.1 202.901Z" fill="#29A881"/>
<path d="M509.4 383.101L989.2 382.701L899.5 236.201L891.8 234.401L889.8 233.901L888.5 232.301L832.6 162.701L794.5 207.801L793.8 208.601L792.7 209.201L784 213.701L760.5 242.601L754.6 249.701L750.6 241.401L715 166.901L703.8 154.601L703.4 154.201L703.1 153.801L664.2 90.8008L618.8 204.201L618.4 205.201L617.6 206.001L599.7 225.101L509.4 383.101Z" fill="#7BCAAF"/>
<path d="M518.7 384.099L991.6 383.699L903.3 258.499L895.6 256.999L893.7 256.599L892.4 255.199L837.3 196.199L799.8 234.399L799 235.199L798 235.599L789.4 239.499L766.2 263.899L760.5 269.999L756.5 262.899L721.3 199.799L710.3 189.399L710 188.999L709.7 188.599L671.3 135.199L626.5 231.399L626.1 232.299L625.4 232.899L607.7 249.099L518.7 384.099Z" fill="#6FBA9D"/>
<path d="M903.3 230.998L893.1 228.598L832.8 153.398L790 203.998L780.2 209.098L755.9 238.898L719.9 163.698L708.1 150.798L663 77.8984L613.3 201.998L594.9 221.598L499.3 388.998L999.7 388.498L903.3 230.998ZM618.4 205.198L618.8 204.198L664.2 90.7984L703.1 153.798L703.4 154.298L703.8 154.698L715 166.998L750.7 241.498L754.7 249.898L760.6 242.698L784.1 213.898L792.8 209.398L793.8 208.898L794.5 207.998L832.6 162.898L888.5 232.598L889.8 234.198L891.8 234.698L899.6 236.498L989.2 382.998L509.4 383.398L599.6 225.398L617.5 206.298L618.4 205.198Z" fill="#29A881"/>
<path d="M583.3 382.701L523.8 284.401L515.6 282.601L513.3 282.101L512 280.101L464 207.801L435.6 249.601L434 251.901L431.3 252.101L430.2 252.201L347 383.001L583.3 382.701Z" fill="#7BCAAF"/>
<path d="M586.2 382.698L529.2 298.498L521.4 296.898L519.2 296.498L517.9 294.798L471.9 232.898L444.7 268.698L443.2 270.598L440.6 270.898H439.6L359.8 382.998L586.2 382.698Z" fill="#6FBA9D"/>
<path d="M527.5 279.201L516.9 276.801L464 197.301L430.7 246.301L426.8 246.701L336.3 388.901L593.7 388.501L527.5 279.201ZM431.3 252.101L434 251.801L435.5 249.501L463.9 207.701L512 280.001L513.3 282.001L515.6 282.501L523.7 284.301L583.2 382.601L347 383.001L430.2 252.201L431.3 252.101Z" fill="#29A881"/>
<path d="M10.1001 383.099C19.2001 383.099 35.9001 383.099 65.5001 383.099C125.6 383.099 210.9 383.099 241.3 383.099L214 344.399L207.3 343.799L204.5 343.599L202.9 341.199L146.1 254.999L143.9 254.799L141 254.599L139.4 252.099L111.8 208.699L53.8001 313.399L52.8001 315.199L50.9001 315.999L47.2001 317.599L10.1001 383.099Z" fill="#7BCAAF"/>
<path d="M26.1001 383.101C34.2001 383.101 49.1001 383.101 75.5001 383.101C129.1 383.101 205.1 383.101 232.3 383.101L207.9 350.001L202 349.501L199.5 349.301L198.1 347.301L147.4 273.701L145.4 273.601L142.8 273.401L141.4 271.301L116.8 234.301L65.2001 323.601L64.3001 325.101L62.6001 325.801L59.3001 327.101L26.1001 383.101Z" fill="#6FBA9D"/>
<path d="M217.2 338.699L207.8 337.899L149.4 249.299L144.3 248.899L111.4 197.199L48.7 310.499L43.2 312.899L0 388.999C0 388.999 28.1 388.999 65.5 388.999C140.4 388.999 252.6 388.999 252.6 388.999L217.2 338.699ZM52.9 315.099L53.9 313.299L111.8 208.699L139.4 252.099L141 254.599L143.9 254.799L146.1 254.999L202.9 341.099L204.5 343.499L207.3 343.699L214 344.299L241.3 382.999C210.9 382.999 125.6 382.999 65.5 382.999C35.9 382.999 19.2 382.999 10.1 382.999L47.4 317.399L51.1 315.799L52.9 315.099Z" fill="#29A881"/>
<rect x="1117.38" y="269.062" width="5.61636" height="113.937" fill="#EAEAEA"/>
<rect x="1123" y="269.062" width="60.4257" height="39.0347" fill="white"/>
<rect x="1123" y="269.062" width="12.0851" height="13.0116" fill="#4A4A4A"/>
<rect x="1123" y="295.086" width="12.0851" height="13.0116" fill="#4A4A4A"/>
<rect x="1135.09" y="282.07" width="12.0851" height="13.0116" fill="#4A4A4A"/>
<rect x="1147.17" y="269.062" width="12.0851" height="13.0116" fill="#4A4A4A"/>
<rect x="1147.17" y="295.086" width="12.0851" height="13.0116" fill="#4A4A4A"/>
<rect x="1171.34" y="269.062" width="12.0851" height="13.0116" fill="#4A4A4A"/>
<rect x="1171.34" y="295.086" width="12.0851" height="13.0116" fill="#4A4A4A"/>
<rect x="1159.26" y="282.07" width="12.0851" height="13.0116" fill="#4A4A4A"/>
</svg>
