<svg width="550" height="528" viewBox="0 0 550 528" fill="none" xmlns="http://www.w3.org/2000/svg">
<path d="M504.192 139.765C501.606 136.314 499.021 132 497.297 127.686C471.441 51.7647 400.768 0 320.614 0C310.272 0 299.929 0.862745 289.587 2.58824C283.554 3.45098 279.245 4.31373 274.935 4.31373C273.212 4.31373 271.488 4.31373 269.764 4.31373C256.836 2.58824 243.908 0.862745 230.118 0.862745C224.085 0.862745 218.914 0.862745 212.881 1.72549C134.451 12.0784 80.1536 55.2157 53.4357 131.137C52.5738 133.725 50.8501 137.176 48.2645 139.765C17.2373 174.275 0 219.137 0 264.863C0 311.451 18.0992 355.451 49.1264 390.824C50.8501 392.549 52.5738 395.137 53.4357 398.588C62.9162 427.922 78.4298 452.941 99.9765 473.647C137.037 509.882 180.992 528 230.98 528C237.875 528 243.908 528 250.803 527.137C255.112 527.137 258.56 526.275 262.007 525.412C268.04 524.549 273.212 523.686 278.383 523.686C282.692 523.686 286.14 524.549 289.587 525.412C293.034 526.275 296.482 527.137 299.068 527.137C305.101 528 311.996 528 318.029 528C357.674 528 395.597 515.922 427.486 492.627C459.375 469.333 483.507 436.549 496.435 398.588C497.297 395.137 499.882 391.686 502.468 389.098C533.495 353.725 549.871 311.451 549.871 268.314C551.594 218.275 536.081 176.863 504.192 139.765ZM131.866 446.039C103.424 419.294 87.0485 382.196 86.1866 343.373C85.3248 305.412 99.9765 268.314 127.556 240.706C147.379 220.863 171.511 207.059 198.229 200.157C155.998 237.255 134.451 284.706 134.451 340.784C134.451 397.725 155.998 445.176 198.229 482.275C173.235 477.098 150.827 464.157 131.866 446.039ZM55.1594 203.608C81.8773 147.529 126.694 119.059 187.887 119.059C228.395 119.059 262.007 133.725 289.587 163.059C270.626 157.02 251.665 154.431 231.842 154.431C182.716 154.431 136.175 173.412 100.838 207.059C73.2586 232.941 55.1594 266.588 47.4026 302.824C37.0602 269.176 39.6458 236.392 55.1594 203.608ZM213.743 43.1373C220.638 42.2745 227.533 42.2745 233.566 42.2745C285.278 42.2745 326.647 65.5686 355.089 112.157C377.497 148.392 382.669 186.353 370.602 226.039C361.984 187.216 342.161 152.706 313.719 126.824C278.383 94.0392 232.704 76.7843 185.301 76.7843C165.478 76.7843 146.517 80.2353 128.418 86.2745C150.827 61.2549 179.268 46.5882 213.743 43.1373ZM331.818 264C331.818 279.529 325.785 293.333 315.443 303.686C305.101 314.039 291.311 320.078 275.797 320.078C245.632 320.078 219.776 295.059 219.776 264.863C219.776 233.804 244.77 208.784 274.935 207.922H275.797C290.449 207.922 304.239 213.961 315.443 224.314C325.785 235.529 330.957 249.333 331.818 264ZM450.756 250.196C430.933 291.608 399.044 317.49 355.951 326.98C397.32 289.02 418.005 241.569 418.005 186.353C418.005 129.412 396.458 81.9608 353.365 44.8627C377.497 50.0392 407.663 64.7059 430.071 91.451C469.717 141.49 476.612 194.98 450.756 250.196ZM179.268 376.157C173.235 351.137 174.097 324.392 180.992 300.235C192.196 356.314 222.361 398.588 270.626 426.196C299.929 443.451 330.957 452.078 362.846 452.078C383.53 452.078 404.215 448.627 424.9 440.863C415.419 451.216 404.215 459.843 392.149 466.745C369.741 479.686 344.746 486.588 319.752 486.588C293.896 486.588 268.902 479.686 245.632 465.882C212.019 446.039 188.749 414.118 179.268 376.157ZM440.414 388.235C418.005 402.039 392.149 408.941 365.431 408.941C324.062 408.941 286.14 391.686 259.422 363.216C280.968 370.118 301.653 374.431 322.338 374.431C353.365 374.431 384.392 365.804 413.696 348.549C462.822 320.078 492.987 277.804 504.192 221.725C511.087 245.02 511.949 270.902 506.777 295.922C497.297 334.745 474.026 367.529 440.414 388.235Z" fill="white"/>
</svg>
