<svg width="51" height="51" viewBox="0 0 51 51" fill="none" xmlns="http://www.w3.org/2000/svg">
<path d="M46.5856 13.7353C46.3506 13.4085 46.1155 13 45.9588 12.5915C43.6083 5.40196 37.1834 0.5 29.8967 0.5C28.9565 0.5 28.0163 0.581699 27.0761 0.745098C26.5276 0.826797 26.1359 0.908497 25.7441 0.908497C25.5874 0.908497 25.4307 0.908497 25.274 0.908497C24.0987 0.745098 22.9235 0.581699 21.6698 0.581699C21.1214 0.581699 20.6513 0.581699 20.1028 0.663399C12.9728 1.64379 8.03669 5.72876 5.60779 12.9183C5.52944 13.1634 5.37274 13.4902 5.13768 13.7353C2.31703 17.0033 0.75 21.2516 0.75 25.5817C0.75 29.9935 2.39538 34.1601 5.21603 37.5098C5.37274 37.6732 5.52944 37.9183 5.60779 38.2451C6.46966 41.0229 7.87998 43.3922 9.83877 45.3529C13.2079 48.7843 17.2038 50.5 21.7482 50.5C22.375 50.5 22.9235 50.5 23.5503 50.4183C23.942 50.4183 24.2554 50.3366 24.5688 50.2549C25.1173 50.1732 25.5874 50.0915 26.0575 50.0915C26.4493 50.0915 26.7627 50.1732 27.0761 50.2549C27.3895 50.3366 27.7029 50.4183 27.938 50.4183C28.4864 50.5 29.1132 50.5 29.6617 50.5C33.2659 50.5 36.7133 49.3562 39.6123 47.1503C42.5113 44.9444 44.7052 41.8399 45.8804 38.2451C45.9588 37.9183 46.1939 37.5915 46.4289 37.3464C49.2496 33.9967 50.7382 29.9935 50.7382 25.9085C50.8949 21.1699 49.4846 17.2484 46.5856 13.7353ZM12.7378 42.7386C10.1522 40.2059 8.6635 36.6928 8.58515 33.0163C8.5068 29.4216 9.83877 25.9085 12.346 23.2941C14.1481 21.415 16.3419 20.1078 18.7708 19.4542C14.9316 22.9673 12.9728 27.4608 12.9728 32.7712C12.9728 38.1634 14.9316 42.6569 18.7708 46.1699C16.4986 45.6797 14.4615 44.4542 12.7378 42.7386ZM5.76449 19.781C8.19339 14.4706 12.2677 11.7745 17.8306 11.7745C21.5131 11.7745 24.5688 13.1634 27.0761 15.9412C25.3524 15.3693 23.6286 15.1242 21.8265 15.1242C17.3605 15.1242 13.1295 16.9216 9.91712 20.1078C7.40988 22.5588 5.76449 25.7451 5.05933 29.1765C4.11911 25.9902 4.35417 22.8856 5.76449 19.781ZM20.1812 4.58497C20.808 4.50327 21.4348 4.50327 21.9832 4.50327C26.6843 4.50327 30.4452 6.70915 33.0308 11.1209C35.0679 14.5523 35.5381 18.1471 34.4411 21.9052C33.6576 18.2288 31.8555 14.9608 29.2699 12.5098C26.0575 9.40523 21.9049 7.77124 17.5956 7.77124C15.7935 7.77124 14.0698 8.09804 12.4244 8.66993C14.4615 6.30065 17.0471 4.91176 20.1812 4.58497ZM30.9153 25.5C30.9153 26.9706 30.3669 28.2778 29.4266 29.2582C28.4864 30.2386 27.2328 30.8105 25.8225 30.8105C23.0802 30.8105 20.7296 28.4412 20.7296 25.5817C20.7296 22.6405 23.0018 20.2712 25.7441 20.1895H25.8225C27.1544 20.1895 28.4081 20.7614 29.4266 21.7418C30.3669 22.8039 30.837 24.1111 30.9153 25.5ZM41.7278 24.1928C39.9257 28.1144 37.0267 30.5654 33.1092 31.4641C36.87 27.8693 38.7505 23.3758 38.7505 18.1471C38.7505 12.7549 36.7917 8.26144 32.8741 4.74837C35.0679 5.23856 37.8102 6.62745 39.8474 9.16013C43.4516 13.8987 44.0784 18.9641 41.7278 24.1928ZM17.0471 36.1209C16.4986 33.7516 16.577 31.219 17.2038 28.9314C18.2224 34.2418 20.9647 38.2451 25.3524 40.8595C28.0163 42.4935 30.837 43.3105 33.736 43.3105C35.6164 43.3105 37.4968 42.9837 39.3773 42.2484C38.5154 43.2288 37.4968 44.0458 36.3999 44.6993C34.3628 45.9248 32.0906 46.5784 29.8184 46.5784C27.4679 46.5784 25.1957 45.9248 23.0802 44.6176C20.0245 42.7386 17.909 39.7157 17.0471 36.1209ZM40.7876 37.2647C38.7505 38.5719 36.3999 39.2255 33.971 39.2255C30.2102 39.2255 26.7627 37.5915 24.3338 34.8954C26.2926 35.549 28.173 35.9575 30.0535 35.9575C32.8741 35.9575 35.6948 35.1405 38.3587 33.5065C42.8247 30.8105 45.567 26.8072 46.5856 21.4967C47.2124 23.7026 47.2908 26.1536 46.8207 28.5229C45.9588 32.1993 43.8433 35.3039 40.7876 37.2647Z" fill="white"/>
</svg>
