<svg width="50" height="48" viewBox="0 0 50 48" fill="none" xmlns="http://www.w3.org/2000/svg">
<path d="M45.8356 12.7059C45.6006 12.3922 45.3655 12 45.2088 11.6078C42.8583 4.70588 36.4334 0 29.1467 0C28.2065 0 27.2663 0.0784314 26.3261 0.235294C25.7776 0.313726 25.3859 0.392157 24.9941 0.392157C24.8374 0.392157 24.6807 0.392157 24.524 0.392157C23.3487 0.235294 22.1735 0.0784314 20.9198 0.0784314C20.3714 0.0784314 19.9013 0.0784314 19.3528 0.156863C12.2228 1.09804 7.28669 5.01961 4.85779 11.9216C4.77944 12.1569 4.62274 12.4706 4.38768 12.7059C1.56703 15.8431 0 19.9216 0 24.0784C0 28.3137 1.64538 32.3137 4.46603 35.5294C4.62274 35.6863 4.77944 35.9216 4.85779 36.2353C5.71966 38.902 7.12998 41.1765 9.08877 43.0588C12.4579 46.3529 16.4538 48 20.9982 48C21.625 48 22.1735 48 22.8003 47.9216C23.192 47.9216 23.5054 47.8431 23.8188 47.7647C24.3673 47.6863 24.8374 47.6078 25.3075 47.6078C25.6993 47.6078 26.0127 47.6863 26.3261 47.7647C26.6395 47.8431 26.9529 47.9216 27.188 47.9216C27.7364 48 28.3632 48 28.9117 48C32.5159 48 35.9633 46.902 38.8623 44.7843C41.7613 42.6667 43.9552 39.6863 45.1304 36.2353C45.2088 35.9216 45.4439 35.6078 45.6789 35.3725C48.4996 32.1569 49.9882 28.3137 49.9882 24.3922C50.1449 19.8431 48.7346 16.0784 45.8356 12.7059ZM11.9878 40.549C9.40218 38.1176 7.9135 34.7451 7.83515 31.2157C7.7568 27.7647 9.08877 24.3922 11.596 21.8824C13.3981 20.0784 15.5919 18.8235 18.0208 18.1961C14.1816 21.5686 12.2228 25.8824 12.2228 30.9804C12.2228 36.1569 14.1816 40.4706 18.0208 43.8431C15.7486 43.3726 13.7115 42.1961 11.9878 40.549ZM5.01449 18.5098C7.44339 13.4118 11.5177 10.8235 17.0806 10.8235C20.7631 10.8235 23.8188 12.1569 26.3261 14.8235C24.6024 14.2745 22.8786 14.0392 21.0765 14.0392C16.6105 14.0392 12.3795 15.7647 9.16712 18.8235C6.65988 21.1765 5.01449 24.2353 4.30933 27.5294C3.36911 24.4706 3.60417 21.4902 5.01449 18.5098ZM19.4312 3.92157C20.058 3.84314 20.6848 3.84314 21.2332 3.84314C25.9343 3.84314 29.6952 5.96078 32.2808 10.1961C34.3179 13.4902 34.7881 16.9412 33.6911 20.549C32.9076 17.0196 31.1055 13.8824 28.5199 11.5294C25.3075 8.54902 21.1549 6.98039 16.8456 6.98039C15.0435 6.98039 13.3198 7.29412 11.6744 7.84314C13.7115 5.56863 16.2971 4.23529 19.4312 3.92157ZM30.1653 24C30.1653 25.4118 29.6169 26.6667 28.6766 27.6078C27.7364 28.549 26.4828 29.098 25.0725 29.098C22.3302 29.098 19.9796 26.8235 19.9796 24.0784C19.9796 21.2549 22.2518 18.9804 24.9941 18.902H25.0725C26.4044 18.902 27.6581 19.451 28.6766 20.3922C29.6169 21.4118 30.087 22.6667 30.1653 24ZM40.9778 22.7451C39.1757 26.5098 36.2767 28.8627 32.3592 29.7255C36.12 26.2745 38.0005 21.9608 38.0005 16.9412C38.0005 11.7647 36.0417 7.45098 32.1241 4.07843C34.3179 4.54902 37.0602 5.88235 39.0974 8.31373C42.7016 12.8627 43.3284 17.7255 40.9778 22.7451ZM16.2971 34.1961C15.7486 31.9216 15.827 29.4902 16.4538 27.2941C17.4724 32.3922 20.2147 36.2353 24.6024 38.7451C27.2663 40.3137 30.087 41.098 32.986 41.098C34.8664 41.098 36.7468 40.7843 38.6273 40.0784C37.7654 41.0196 36.7468 41.8039 35.6499 42.4314C33.6128 43.6078 31.3406 44.2353 29.0684 44.2353C26.7179 44.2353 24.4457 43.6078 22.3302 42.3529C19.2745 40.549 17.159 37.6471 16.2971 34.1961ZM40.0376 35.2941C38.0005 36.549 35.6499 37.1765 33.221 37.1765C29.4602 37.1765 26.0127 35.6078 23.5838 33.0196C25.5426 33.6471 27.423 34.0392 29.3035 34.0392C32.1241 34.0392 34.9448 33.2549 37.6087 31.6863C42.0747 29.098 44.817 25.2549 45.8356 20.1569C46.4624 22.2745 46.5408 24.6275 46.0707 26.902C45.2088 30.4314 43.0933 33.4118 40.0376 35.2941Z" fill="#333333"/>
</svg>
