<svg width="470" height="232" viewBox="0 0 470 232" fill="none" xmlns="http://www.w3.org/2000/svg">
<path d="M30.0563 66.5582V53.2948H22.4517V67.4022C22.4517 71.5018 20.0375 74.3956 15.692 74.3956C11.1051 74.3956 8.69099 71.5018 8.69099 67.5228V15.1926C8.69099 11.3342 11.1051 8.31977 15.692 8.31977C20.0375 8.31977 22.4517 11.3342 22.4517 15.3132V29.3001H30.0563V16.1572C30.0563 6.87286 24.7452 0 15.3299 0C5.91471 0 0 7.23458 0 16.519V66.1964C0 75.6014 5.91471 82.7154 15.3299 82.7154C24.7452 82.7154 30.0563 75.8425 30.0563 66.5582Z" fill="#343434"/>
<path d="M74.922 65.9553V16.7601C74.922 7.11401 68.8866 0 59.4714 0C50.0561 0 44.0207 7.11401 44.0207 16.7601V65.9553C44.0207 75.722 50.0561 82.7154 59.4714 82.7154C68.8866 82.7154 74.922 75.722 74.922 65.9553ZM66.3517 67.161C66.3517 71.3812 63.9376 74.3956 59.4714 74.3956C55.0052 74.3956 52.7117 71.3812 52.7117 67.161V15.5543C52.7117 11.4548 55.0052 8.31977 59.4714 8.31977C63.9376 8.31977 66.3517 11.4548 66.3517 15.5543V67.161Z" fill="#343434"/>
<path d="M115.52 81.5096V73.1898H99.2249V1.20577H90.5339V81.5096H115.52Z" fill="#343434"/>
<path d="M137.708 81.5096V1.20577H128.896V81.5096H137.708Z" fill="#343434"/>
<path d="M185.926 81.5096V1.20577H177.718V55.4651L174.097 42.4429L161.664 1.20577H153.818V81.5096H162.026V27.9737L165.889 40.8754L179.529 81.5096H185.926Z" fill="#343434"/>
<path d="M251.73 65.2318C251.73 56.068 247.385 47.6277 240.383 38.5844C233.262 29.1795 230.244 23.7535 230.244 15.1926C230.244 10.4901 232.538 7.83747 236.762 7.83747C241.108 7.83747 243.16 11.093 243.16 16.6395V25.4416H251.368V15.9161C251.368 6.51112 245.695 0 237.004 0C226.743 0 221.794 7.47574 221.794 17.4836C221.794 26.8885 228.433 37.6198 234.107 44.8544C240.384 52.933 243.281 59.4441 243.281 67.161C243.281 72.2252 241.108 75.3602 236.279 75.3602C232.055 75.3602 229.52 71.8635 229.52 66.5582V57.7561H221.07V66.9199C221.07 76.2043 226.985 82.7154 236.4 82.7154C243.763 82.7154 251.73 78.0129 251.73 65.2318Z" fill="#343434"/>
<path d="M295.293 32.9173V15.7955C295.293 5.18479 289.258 1.20577 281.774 1.20577H265.961V81.5096H274.652V47.5071H281.774C289.258 47.5071 295.293 43.5281 295.293 32.9173ZM286.482 33.7614C286.482 37.6198 285.033 39.6696 281.895 39.6696H274.652V9.40496H281.895C285.033 9.40496 286.482 11.3342 286.482 15.1926V33.7614Z" fill="#343434"/>
<path d="M334.629 81.5096V73.431H317.73V43.8898H329.922V36.0523H317.73V9.28438H334.629V1.20577H309.039V81.5096H334.629Z" fill="#343434"/>
<path d="M380.804 81.5096V1.20577H372.595V55.4651L368.974 42.4429L356.541 1.20577H348.695V81.5096H356.903V27.9737L360.766 40.8754L374.406 81.5096H380.804Z" fill="#343434"/>
<path d="M426.059 66.5582V53.2948H418.454V67.4022C418.454 71.5018 416.04 74.3956 411.695 74.3956C407.108 74.3956 404.694 71.5018 404.694 67.5228V15.1926C404.694 11.3342 407.108 8.31977 411.695 8.31977C416.04 8.31977 418.454 11.3342 418.454 15.3132V29.3001H426.059V16.1572C426.059 6.87286 420.748 0 411.332 0C401.917 0 396.003 7.23458 396.003 16.519V66.1964C396.003 75.6014 401.917 82.7154 411.332 82.7154C420.748 82.7154 426.059 75.8425 426.059 66.5582Z" fill="#343434"/>
<path d="M466.338 81.5096V73.431H449.438V43.8898H461.63V36.0523H449.438V9.28438H466.338V1.20577H440.747V81.5096H466.338Z" fill="#343434"/>
<path d="M57.8047 199.985V137.784C57.8047 119.856 49.5633 107.964 30.3332 107.964H1.21342V229.805H30.3332C49.5633 229.805 57.8047 217.913 57.8047 199.985ZM42.6038 200.168C42.6038 210.23 38.7578 215.535 29.6006 215.535H16.5975V122.234H29.6006C38.7578 122.234 42.6038 127.539 42.6038 137.784V200.168Z" fill="#343434"/>
<path d="M142.71 229.805V215.901H110.111V173.092H133.736V159.737H110.111V121.868H142.71V107.964H94.9098V229.805H142.71Z" fill="#343434"/>
<path d="M230.271 202.363C230.271 187.545 222.946 176.019 208.844 163.396C194.558 150.407 189.797 143.455 189.797 131.564C189.797 123.88 194.009 119.124 202.067 119.124C211.041 119.124 215.07 125.527 215.07 134.857V144.553H229.539V133.211C229.539 117.112 218.916 105.769 202.434 105.769C184.302 105.769 174.779 118.209 174.779 134.491C174.779 150.407 187.049 164.494 198.221 174.373C210.675 185.532 215.254 193.765 215.254 205.107C215.254 213.523 210.858 219.194 201.884 219.194C193.276 219.194 188.515 213.34 188.515 203.095V193.582H173.497V204.741C173.497 220.658 184.669 232 201.884 232C217.085 232 230.271 222.121 230.271 202.363Z" fill="#343434"/>
<path d="M280.696 229.805V107.964H265.312V229.805H280.696Z" fill="#343434"/>
<path d="M374.8 229.805V168.336H347.145V181.325H360.148V204.741C360.148 212.059 355.753 218.462 346.596 218.462C337.256 218.462 333.043 212.059 333.043 204.741V133.028C333.043 126.259 337.439 119.673 346.596 119.673C355.57 119.673 359.599 125.893 359.599 132.845V146.748H373.884V134.857C373.884 117.66 365.276 105.769 346.596 105.769C327.915 105.769 317.842 118.758 317.842 134.857V202.912C317.842 220.292 327.732 232 344.215 232C353.555 232 360.881 228.524 364.361 221.572L367.657 229.805H374.8Z" fill="#343434"/>
<path d="M470 229.805V107.964H455.532V190.106L448.023 169.433L424.031 107.964H411.028V229.805H425.496V148.761L433.555 169.25L459.011 229.805H470Z" fill="#343434"/>
</svg>
