<svg width="70" height="35" viewBox="0 0 70 35" fill="none" xmlns="http://www.w3.org/2000/svg">
<path d="M4.47647 10.0411V8.04016H3.34387V10.1684C3.34387 10.7869 2.98431 11.2235 2.33711 11.2235C1.65396 11.2235 1.2944 10.7869 1.2944 10.1866V2.29199C1.2944 1.7099 1.65396 1.25514 2.33711 1.25514C2.98431 1.25514 3.34387 1.7099 3.34387 2.31018V4.42027H4.47647V2.43751C4.47647 1.03685 3.68545 0 2.28318 0C0.880914 0 0 1.09142 0 2.49208V9.98653C0 11.4054 0.880914 12.4786 2.28318 12.4786C3.68545 12.4786 4.47647 11.4418 4.47647 10.0411Z" fill="white"/>
<path d="M11.1586 9.95015V2.52847C11.1586 1.07323 10.2597 0 8.85744 0C7.45517 0 6.55628 1.07323 6.55628 2.52847V9.95015C6.55628 11.4236 7.45517 12.4786 8.85744 12.4786C10.2597 12.4786 11.1586 11.4236 11.1586 9.95015ZM9.88217 10.1321C9.88217 10.7687 9.52262 11.2235 8.85744 11.2235C8.19226 11.2235 7.85068 10.7687 7.85068 10.1321V2.34656C7.85068 1.72809 8.19226 1.25514 8.85744 1.25514C9.52262 1.25514 9.88217 1.72809 9.88217 2.34656V10.1321Z" fill="white"/>
<path d="M17.2052 12.2967V11.0416H14.7782V0.181905H13.4838V12.2967H17.2052Z" fill="white"/>
<path d="M20.5097 12.2967V0.181905H19.1973V12.2967H20.5097Z" fill="white"/>
<path d="M27.6911 12.2967V0.181905H26.4686V8.36758L25.9293 6.40302L24.0776 0.181905H22.9091V12.2967H24.1315V4.22017L24.7068 6.16655L26.7383 12.2967H27.6911Z" fill="white"/>
<path d="M37.4917 9.84101C37.4917 8.45854 36.8445 7.18521 35.8018 5.82093C34.7411 4.40208 34.2917 3.58351 34.2917 2.29199C34.2917 1.58256 34.6332 1.18238 35.2625 1.18238C35.9097 1.18238 36.2153 1.67352 36.2153 2.51028V3.83817H37.4378V2.40113C37.4378 0.982282 36.5928 0 35.2984 0C33.7703 0 33.0332 1.12781 33.0332 2.63761C33.0332 4.05646 34.022 5.6754 34.867 6.76683C35.8018 7.98559 36.2333 8.96787 36.2333 10.1321C36.2333 10.896 35.9097 11.369 35.1906 11.369C34.5613 11.369 34.1838 10.8415 34.1838 10.0411V8.7132H32.9254V10.0957C32.9254 11.4963 33.8063 12.4786 35.2085 12.4786C36.3052 12.4786 37.4917 11.7692 37.4917 9.84101Z" fill="white"/>
<path d="M43.9799 4.96598V2.38294C43.9799 0.782188 43.081 0.181905 41.9664 0.181905H39.6113V12.2967H40.9057V7.16702H41.9664C43.081 7.16702 43.9799 6.56673 43.9799 4.96598ZM42.6675 5.09331C42.6675 5.67541 42.4517 5.98464 41.9843 5.98464H40.9057V1.41885H41.9843C42.4517 1.41885 42.6675 1.7099 42.6675 2.29199V5.09331Z" fill="white"/>
<path d="M49.8384 12.2967V11.078H47.3215V6.62131H49.1372V5.43893H47.3215V1.40066H49.8384V0.181905H46.0271V12.2967H49.8384Z" fill="white"/>
<path d="M56.7154 12.2967V0.181905H55.4929V8.36758L54.9536 6.40302L53.1019 0.181905H51.9334V12.2967H53.1558V4.22017L53.7311 6.16655L55.7626 12.2967H56.7154Z" fill="white"/>
<path d="M63.4556 10.0411V8.04016H62.323V10.1684C62.323 10.7869 61.9634 11.2235 61.3162 11.2235C60.6331 11.2235 60.2735 10.7869 60.2735 10.1866V2.29199C60.2735 1.7099 60.6331 1.25514 61.3162 1.25514C61.9634 1.25514 62.323 1.7099 62.323 2.31018V4.42027H63.4556V2.43751C63.4556 1.03685 62.6645 0 61.2623 0C59.86 0 58.9791 1.09142 58.9791 2.49208V9.98653C58.9791 11.4054 59.86 12.4786 61.2623 12.4786C62.6645 12.4786 63.4556 11.4418 63.4556 10.0411Z" fill="white"/>
<path d="M69.4545 12.2967V11.078H66.9376V6.62131H68.7534V5.43893H66.9376V1.40066H69.4545V0.181905H65.6432V12.2967H69.4545Z" fill="white"/>
<path d="M8.60921 30.1701V20.7864C8.60921 18.0817 7.38176 16.2877 4.51771 16.2877H0.180723V34.6688H4.51771C7.38176 34.6688 8.60921 32.8749 8.60921 30.1701ZM6.34525 30.1977C6.34525 31.7157 5.77243 32.5161 4.4086 32.5161H2.47196V18.4405H4.4086C5.77243 18.4405 6.34525 19.2408 6.34525 20.7864V30.1977Z" fill="white"/>
<path d="M21.2547 34.6688V32.5713H16.3995V26.113H19.9182V24.0983H16.3995V18.3853H21.2547V16.2877H14.1355V34.6688H21.2547Z" fill="white"/>
<path d="M34.2957 30.5289C34.2957 28.2934 33.2047 26.5546 31.1044 24.6503C28.9768 22.6907 28.2676 21.642 28.2676 19.848C28.2676 18.6889 28.895 17.9713 30.0951 17.9713C31.4317 17.9713 32.0318 18.9372 32.0318 20.3448V21.8076H34.1866V20.0964C34.1866 17.6677 32.6046 15.9565 30.1497 15.9565C27.4493 15.9565 26.0309 17.8333 26.0309 20.2896C26.0309 22.6907 27.8584 24.8159 29.5223 26.3062C31.3771 27.9898 32.059 29.2318 32.059 30.9429C32.059 32.2125 31.4044 33.0681 30.0678 33.0681C28.7858 33.0681 28.0766 32.1849 28.0766 30.6393V29.2042H25.84V30.8877C25.84 33.2888 27.5038 35 30.0678 35C32.3318 35 34.2957 33.5096 34.2957 30.5289Z" fill="white"/>
<path d="M41.8057 34.6688V16.2877H39.5145V34.6688H41.8057Z" fill="white"/>
<path d="M55.8213 34.6688V25.3955H51.7025V27.355H53.6391V30.8877C53.6391 31.9917 52.9845 32.9577 51.6207 32.9577C50.2295 32.9577 49.6022 31.9917 49.6022 30.8877V20.0688C49.6022 19.0476 50.2568 18.0541 51.6207 18.0541C52.9572 18.0541 53.5573 18.9924 53.5573 20.0412V22.1388H55.6849V20.3448C55.6849 17.7505 54.4029 15.9565 51.6207 15.9565C48.8384 15.9565 47.3382 17.9161 47.3382 20.3448V30.6117C47.3382 33.2336 48.8112 35 51.2661 35C52.6572 35 53.7482 34.4756 54.2665 33.4268L54.7575 34.6688H55.8213Z" fill="white"/>
<path d="M70 34.6688V16.2877H67.8451V28.6798L66.7268 25.5611L63.1536 16.2877H61.2169V34.6688H63.3718V22.4424L64.5719 25.5335L68.3634 34.6688H70Z" fill="white"/>
</svg>
